<svg width="1584" height="396" viewBox="0 0 1584 396" fill="none" xmlns="http://www.w3.org/2000/svg">
<rect width="1584" height="396" fill="#F5F5F5"/>
<g id="Awesome banner" clip-path="url(#clip0_0_1)">
<rect width="1584" height="396" fill="url(#paint0_linear_0_1)"/>
<ellipse id="Ellipse 2" cx="323" cy="64" rx="285" ry="288" fill="url(#paint1_linear_0_1)" fill-opacity="0.1"/>
<g id="copyright">
<path d="M75.95 334.52L72.30 334.52L72.30 311.16L77.20 311.16L83.70 330.04Q83.60 329.02 83.50 327.62Q83.41 326.23 83.33 324.79Q83.25 323.35 83.25 322.23L83.25 311.16L86.90 311.16L86.90 334.52L82 334.52L75.57 315.64Q75.63 316.57 75.73 317.88Q75.82 319.19 75.89 320.57Q75.95 321.94 75.95 323.10L75.95 334.52M98.80 334.84Q96.46 334.84 94.67 333.96Q92.88 333.08 91.89 331.53Q90.90 329.98 90.90 327.93Q90.90 325.78 92.13 324.18Q93.36 322.58 95.34 322.17L95.34 322.10Q93.65 321.75 92.61 320.38Q91.57 319 91.57 317.11Q91.57 315.26 92.48 313.85Q93.39 312.44 95.02 311.64Q96.66 310.84 98.80 310.84Q100.94 310.84 102.59 311.64Q104.24 312.44 105.15 313.85Q106.06 315.26 106.06 317.11Q106.06 319 105.01 320.38Q103.95 321.75 102.26 322.10L102.26 322.17Q104.24 322.58 105.47 324.18Q106.70 325.78 106.70 327.93Q106.70 329.98 105.71 331.53Q104.72 333.08 102.93 333.96Q101.14 334.84 98.80 334.84M98.80 320.73Q100.30 320.73 101.23 319.82Q102.16 318.90 102.16 317.46Q102.16 315.99 101.23 315.08Q100.30 314.17 98.80 314.17Q97.30 314.17 96.37 315.08Q95.44 315.99 95.44 317.46Q95.44 318.90 96.37 319.82Q97.30 320.73 98.80 320.73M98.80 331.45Q100.56 331.45 101.68 330.42Q102.80 329.40 102.80 327.74Q102.80 326.04 101.68 325Q100.56 323.96 98.80 323.96Q97.04 323.96 95.92 325Q94.80 326.04 94.80 327.74Q94.80 329.40 95.92 330.42Q97.04 331.45 98.80 331.45M114.35 334.52L110.70 334.52L110.70 311.16L115.60 311.16L122.10 330.04Q122 329.02 121.90 327.62Q121.81 326.23 121.73 324.79Q121.65 323.35 121.65 322.23L121.65 311.16L125.30 311.16L125.30 334.52L120.40 334.52L113.97 315.64Q114.03 316.57 114.13 317.88Q114.22 319.19 114.29 320.57Q114.35 321.94 114.35 323.10" fill="white" fill-opacity="0.9"/>
<path d="M161.48 325.24L151.24 325.24L151.24 322.68L161.48 322.68" fill="white" fill-opacity="0.9"/>
<path d="M195.02 334.84Q191.82 334.84 189.96 333.05Q188.11 331.26 188.11 328.12L188.11 317.56Q188.11 314.42 189.96 312.63Q191.82 310.84 195.02 310.84Q198.15 310.84 200.01 312.65Q201.87 314.46 201.87 317.56L198.99 317.56Q198.99 315.58 197.95 314.50Q196.91 313.43 195.02 313.43Q193.13 313.43 192.06 314.50Q190.99 315.58 190.99 317.56L190.99 328.12Q190.99 330.10 192.06 331.18Q193.13 332.25 195.02 332.25Q196.91 332.25 197.95 331.18Q198.99 330.10 198.99 328.12L201.87 328.12Q201.87 331.22 200.01 333.03Q198.15 334.84 195.02 334.84" fill="white" fill-opacity="0.9"/>
<path d="M213.96 334.84Q210.83 334.84 209 333.02Q207.18 331.19 207.18 327.80L207.18 317.88Q207.18 314.49 209 312.66Q210.83 310.84 213.96 310.84Q217.10 310.84 218.92 312.66Q220.75 314.49 220.75 317.85L220.75 327.80Q220.75 331.19 218.92 333.02Q217.10 334.84 213.96 334.84M213.96 332.25Q215.85 332.25 216.86 331.18Q217.87 330.10 217.87 328.12L217.87 317.56Q217.87 315.58 216.86 314.50Q215.85 313.43 213.96 313.43Q212.11 313.43 211.08 314.50Q210.06 315.58 210.06 317.56L210.06 328.12Q210.06 330.10 211.08 331.18Q212.11 332.25 213.96 332.25" fill="white" fill-opacity="0.9"/>
<path d="M228.65 334.52L225.87 334.52L225.87 311.16L230.12 311.16L233.10 321.27L236.20 311.16L240.46 311.16L240.46 334.52L237.67 334.52L237.67 323.48Q237.67 321.91 237.72 319.88Q237.77 317.85 237.87 315.77Q237.96 313.69 238.09 312.02L234.31 324.09L231.82 324.09L228.20 312.31Q228.46 314.68 228.55 317.50Q228.65 320.31 228.65 323.48" fill="white" fill-opacity="0.9"/>
<path d="M247.85 334.52L245.07 334.52L245.07 311.16L249.32 311.16L252.30 321.27L255.40 311.16L259.66 311.16L259.66 334.52L256.87 334.52L256.87 323.48Q256.87 321.91 256.92 319.88Q256.97 317.85 257.07 315.77Q257.16 313.69 257.29 312.02L253.51 324.09L251.02 324.09L247.40 312.31Q247.66 314.68 247.75 317.50Q247.85 320.31 247.85 323.48" fill="white" fill-opacity="0.9"/>
<path d="M271.56 334.84Q268.30 334.84 266.57 333.03Q264.84 331.22 264.84 328.12L264.84 311.16L267.72 311.16L267.72 328.12Q267.72 330.04 268.67 331.16Q269.61 332.28 271.56 332.28Q273.48 332.28 274.44 331.16Q275.40 330.04 275.40 328.12L275.40 311.16L278.28 311.16L278.28 328.12Q278.28 331.26 276.57 333.05Q274.86 334.84 271.56 334.84" fill="white" fill-opacity="0.9"/>
<path d="M286.83 334.52L284.04 334.52L284.04 311.16L287.88 311.16L295.02 331.16Q294.95 330.36 294.87 329.19Q294.79 328.02 294.75 326.73Q294.70 325.43 294.70 324.28L294.70 311.16L297.48 311.16L297.48 334.52L293.64 334.52L286.54 314.52Q286.60 315.29 286.67 316.46Q286.73 317.62 286.78 318.92Q286.83 320.22 286.83 321.40" fill="white" fill-opacity="0.9"/>
<path d="M316.20 334.52L303.72 334.52L303.72 331.90L308.49 331.90L308.49 313.78L303.72 313.78L303.72 311.16L316.20 311.16L316.20 313.78L311.43 313.78L311.43 331.90L316.20 331.90" fill="white" fill-opacity="0.9"/>
<path d="M330.60 334.52L327.72 334.52L327.72 313.78L321.32 313.78L321.32 311.16L337 311.16L337 313.78L330.60 313.78" fill="white" fill-opacity="0.9"/>
<path d="M349.80 334.52L346.92 334.52L346.92 325.78L339.88 311.16L342.95 311.16L347.50 320.76Q347.88 321.56 348.11 322.12Q348.33 322.68 348.39 322.94Q348.46 322.68 348.70 322.12Q348.94 321.56 349.32 320.76L353.87 311.16L356.84 311.16L349.80 325.78" fill="white" fill-opacity="0.9"/>
<path d="M382.83 334.52L380.04 334.52L380.04 311.16L383.88 311.16L391.02 331.16Q390.95 330.36 390.87 329.19Q390.79 328.02 390.75 326.73Q390.70 325.43 390.70 324.28L390.70 311.16L393.48 311.16L393.48 334.52L389.64 334.52L382.54 314.52Q382.60 315.29 382.67 316.46Q382.73 317.62 382.78 318.92Q382.83 320.22 382.83 321.40" fill="white" fill-opacity="0.9"/>
<path d="M405.96 334.84Q402.83 334.84 401 333.02Q399.18 331.19 399.18 327.80L399.18 317.88Q399.18 314.49 401 312.66Q402.83 310.84 405.96 310.84Q409.10 310.84 410.92 312.66Q412.75 314.49 412.75 317.85L412.75 327.80Q412.75 331.19 410.92 333.02Q409.10 334.84 405.96 334.84M405.96 332.25Q407.85 332.25 408.86 331.18Q409.87 330.10 409.87 328.12L409.87 317.56Q409.87 315.58 408.86 314.50Q407.85 313.43 405.96 313.43Q404.11 313.43 403.08 314.50Q402.06 315.58 402.06 317.56L402.06 328.12Q402.06 330.10 403.08 331.18Q404.11 332.25 405.96 332.25" fill="white" fill-opacity="0.9"/>
<path d="M424.55 334.52L418.51 334.52L418.51 311.16L424.55 311.16Q426.83 311.16 428.47 312.02Q430.12 312.89 431.03 314.46Q431.95 316.02 431.95 318.17L431.95 327.48Q431.95 329.62 431.03 331.21Q430.12 332.79 428.47 333.66Q426.83 334.52 424.55 334.52M421.39 313.72L421.39 331.96L424.55 331.96Q426.67 331.96 427.87 330.78Q429.07 329.59 429.07 327.48L429.07 318.17Q429.07 316.09 427.87 314.90Q426.67 313.72 424.55 313.72" fill="white" fill-opacity="0.9"/>
<path d="M451.40 334.52L437.96 334.52L437.96 311.16L451.40 311.16L451.40 313.78L440.81 313.78L440.81 321.02L450.28 321.02L450.28 323.58L440.81 323.58L440.81 331.90L451.40 331.90" fill="white" fill-opacity="0.9"/>
<path d="M463.69 334.84Q460.30 334.84 458.28 333.05Q456.27 331.26 456.27 328.12L459.15 328.12Q459.15 330.07 460.39 331.18Q461.64 332.28 463.69 332.28Q465.67 332.28 466.86 331.13Q468.04 329.98 468.04 328.12Q468.04 326.71 467.29 325.67Q466.54 324.63 465.13 324.25L461.58 323.26Q459.37 322.62 458.11 320.97Q456.84 319.32 456.84 317.08Q456.84 315.22 457.67 313.82Q458.51 312.41 460.01 311.62Q461.51 310.84 463.47 310.84Q465.45 310.84 466.97 311.62Q468.49 312.41 469.35 313.80Q470.22 315.19 470.22 317.02L467.34 317.02Q467.34 315.42 466.25 314.41Q465.16 313.40 463.47 313.40Q461.77 313.40 460.71 314.41Q459.66 315.42 459.66 317.02Q459.66 318.30 460.35 319.21Q461.03 320.12 462.28 320.47L465.93 321.50Q468.27 322.14 469.56 323.91Q470.86 325.69 470.86 328.12Q470.86 331.19 468.91 333.02Q466.95 334.84 463.69 334.84" fill="white" fill-opacity="0.9"/>
</g>
<path d="M74.37 197.64L72.21 197.64L72.21 180.12L74.37 180.12L74.37 187.66L76.96 187.66L80.85 180.12L83.20 180.12L78.86 188.57L83.44 197.64L80.97 197.64L76.89 189.55L74.37 189.55" fill="white" fill-opacity="0.7"/>
<path d="M88.77 197.64L86.61 197.64L86.61 180.12L88.77 180.12L88.77 187.66L91.36 187.66L95.25 180.12L97.60 180.12L93.26 188.57L97.84 197.64L95.37 197.64L91.29 189.55L88.77 189.55" fill="white" fill-opacity="0.7"/>
<path d="M112.12 197.64L100.84 197.64L100.84 195.67L105.52 195.67L105.52 186.41L101.32 186.41L101.32 184.44L107.68 184.44L107.68 195.67L112.12 195.67L112.12 197.64M106.36 182.06Q105.57 182.06 105.11 181.66Q104.66 181.25 104.66 180.55Q104.66 179.83 105.11 179.41Q105.57 178.99 106.36 178.99Q107.15 178.99 107.61 179.41Q108.06 179.83 108.06 180.55Q108.06 181.25 107.61 181.66Q107.15 182.06 106.36 182.06" fill="white" fill-opacity="0.7"/>
<path d="M119.63 197.88Q117.66 197.88 116.48 196.56Q115.29 195.24 115.29 192.98L115.29 189.12Q115.29 186.84 116.46 185.52Q117.64 184.20 119.63 184.20Q121.12 184.20 122.09 184.94Q123.06 185.69 123.26 186.96L123.28 186.96L123.23 183.96L123.23 180.12L125.39 180.12L125.39 197.64L123.23 197.64L123.23 195.12L123.21 195.12Q123.04 196.42 122.08 197.15Q121.12 197.88 119.63 197.88M120.35 196.01Q121.70 196.01 122.46 195.17Q123.23 194.33 123.23 192.84L123.23 189.24Q123.23 187.75 122.46 186.91Q121.70 186.07 120.35 186.07Q118.98 186.07 118.22 186.78Q117.45 187.49 117.45 189.12L117.45 192.96Q117.45 194.57 118.22 195.29Q118.98 196.01 120.35 196.01" fill="white" fill-opacity="0.7"/>
<path d="M145.41 197.64L143.20 197.64L147.76 180.12L150.66 180.12L155.20 197.64L153.02 197.64L151.86 192.98L146.56 192.98L145.41 197.64M148.34 185.74L146.99 191.16L151.41 191.16L150.06 185.76Q149.68 184.22 149.46 183.19Q149.25 182.16 149.20 181.85Q149.15 182.16 148.94 183.19Q148.72 184.22 148.34 185.74" fill="white" fill-opacity="0.7"/>
<path d="M160.77 197.64L158.61 197.64L158.61 180.12L164.25 180.12Q166.70 180.12 168.15 181.52Q169.60 182.93 169.60 185.28Q169.60 187.63 168.15 189.04Q166.70 190.44 164.25 190.44L160.77 190.44L160.77 197.64M160.77 182.06L160.77 188.50L164.25 188.50Q165.66 188.50 166.52 187.62Q167.37 186.74 167.37 185.28Q167.37 183.79 166.52 182.93Q165.66 182.06 164.25 182.06" fill="white" fill-opacity="0.7"/>
<path d="M182.68 197.64L173.32 197.64L173.32 195.67L176.90 195.67L176.90 182.09L173.32 182.09L173.32 180.12L182.68 180.12L182.68 182.09L179.10 182.09L179.10 195.67L182.68 195.67" fill="white" fill-opacity="0.7"/>
<path d="M204.45 197.64L202.29 197.64L202.29 184.44L204.45 184.44L204.45 186.96L204.50 186.96Q204.66 185.69 205.58 184.94Q206.49 184.20 208.02 184.20Q210.09 184.20 211.20 185.44Q212.32 186.67 212.32 188.95L212.32 190.08L210.16 190.08L210.16 188.95Q210.16 186.07 207.35 186.07Q205.94 186.07 205.19 186.89Q204.45 187.70 204.45 189.24" fill="white" fill-opacity="0.7"/>
<path d="M221.20 197.88Q218.87 197.88 217.44 196.48Q216.02 195.07 216.02 192.60L216.02 189.48Q216.02 187.01 217.44 185.60Q218.87 184.20 221.20 184.20Q222.76 184.20 223.92 184.82Q225.09 185.45 225.74 186.58Q226.38 187.70 226.38 189.24L226.38 191.59L218.13 191.59L218.13 192.84Q218.13 194.30 218.97 195.16Q219.81 196.01 221.20 196.01Q222.40 196.01 223.18 195.54Q223.96 195.07 224.13 194.28L226.29 194.28Q226.07 195.94 224.68 196.91Q223.29 197.88 221.20 197.88M218.13 189.24L218.13 189.91L224.27 189.91L224.27 189.24Q224.27 187.68 223.47 186.83Q222.66 185.98 221.20 185.98Q219.74 185.98 218.93 186.83Q218.13 187.68 218.13 189.24" fill="white" fill-opacity="0.7"/>
<path d="M240.59 201.96L238.43 201.96L238.43 198.12L238.48 195.12L238.41 195.12Q238.24 196.39 237.28 197.14Q236.32 197.88 234.83 197.88Q232.84 197.88 231.66 196.56Q230.49 195.24 230.49 192.96L230.49 189.10Q230.49 186.82 231.68 185.51Q232.86 184.20 234.83 184.20Q236.32 184.20 237.28 184.93Q238.24 185.66 238.41 186.96L238.43 186.96L238.43 184.44L240.59 184.44L240.59 201.96M235.55 196.01Q236.90 196.01 237.66 195.17Q238.43 194.33 238.43 192.84L238.43 189.24Q238.43 187.75 237.66 186.91Q236.90 186.07 235.55 186.07Q234.18 186.07 233.42 186.77Q232.65 187.46 232.65 189L232.65 193.08Q232.65 194.62 233.42 195.31Q234.18 196.01 235.55 196.01" fill="white" fill-opacity="0.7"/>
<path d="M249.98 197.88Q247.70 197.88 246.33 196.52Q244.96 195.17 244.96 192.84L244.96 184.44L247.12 184.44L247.12 192.84Q247.12 194.28 247.89 195.13Q248.66 195.98 249.98 195.98Q251.32 195.98 252.10 195.13Q252.88 194.28 252.88 192.84L252.88 184.44L255.04 184.44L255.04 192.84Q255.04 195.17 253.65 196.52Q252.26 197.88 249.98 197.88" fill="white" fill-opacity="0.7"/>
<path d="M270.52 197.64L259.24 197.64L259.24 195.67L263.92 195.67L263.92 186.41L259.72 186.41L259.72 184.44L266.08 184.44L266.08 195.67L270.52 195.67L270.52 197.64M264.76 182.06Q263.97 182.06 263.51 181.66Q263.06 181.25 263.06 180.55Q263.06 179.83 263.51 179.41Q263.97 178.99 264.76 178.99Q265.55 178.99 266.01 179.41Q266.46 179.83 266.46 180.55Q266.46 181.25 266.01 181.66Q265.55 182.06 264.76 182.06" fill="white" fill-opacity="0.7"/>
<path d="M276.45 197.64L274.29 197.64L274.29 184.44L276.45 184.44L276.45 186.96L276.50 186.96Q276.66 185.69 277.58 184.94Q278.49 184.20 280.02 184.20Q282.09 184.20 283.20 185.44Q284.32 186.67 284.32 188.95L284.32 190.08L282.16 190.08L282.16 188.95Q282.16 186.07 279.35 186.07Q277.94 186.07 277.19 186.89Q276.45 187.70 276.45 189.24" fill="white" fill-opacity="0.7"/>
<path d="M293.20 197.88Q290.87 197.88 289.44 196.48Q288.02 195.07 288.02 192.60L288.02 189.48Q288.02 187.01 289.44 185.60Q290.87 184.20 293.20 184.20Q294.76 184.20 295.92 184.82Q297.09 185.45 297.74 186.58Q298.38 187.70 298.38 189.24L298.38 191.59L290.13 191.59L290.13 192.84Q290.13 194.30 290.97 195.16Q291.81 196.01 293.20 196.01Q294.40 196.01 295.18 195.54Q295.96 195.07 296.13 194.28L298.29 194.28Q298.07 195.94 296.68 196.91Q295.29 197.88 293.20 197.88M290.13 189.24L290.13 189.91L296.27 189.91L296.27 189.24Q296.27 187.68 295.47 186.83Q294.66 185.98 293.20 185.98Q291.74 185.98 290.93 186.83Q290.13 187.68 290.13 189.24" fill="white" fill-opacity="0.7"/>
<path d="M308.13 197.83L307.07 197.83Q304.86 197.83 303.65 196.84Q302.44 195.84 302.44 194.02L304.60 194.02Q304.60 194.93 305.25 195.44Q305.90 195.96 307.07 195.96L308.13 195.96Q309.33 195.96 309.99 195.43Q310.65 194.90 310.65 193.94Q310.65 192.24 309.09 192.02L305.44 191.50Q304.10 191.30 303.35 190.38Q302.61 189.46 302.61 187.94Q302.61 186.22 303.80 185.23Q304.98 184.25 307.07 184.25L308.13 184.25Q310.05 184.25 311.26 185.20Q312.47 186.14 312.57 187.68L310.38 187.68Q310.34 186.98 309.72 186.53Q309.11 186.07 308.13 186.07L307.07 186.07Q305.97 186.07 305.34 186.58Q304.72 187.08 304.72 187.94Q304.72 189.34 305.99 189.53L309.40 190.01Q312.76 190.49 312.76 193.94Q312.76 195.79 311.55 196.81Q310.34 197.83 308.13 197.83" fill="white" fill-opacity="0.7"/>
<path d="M335.25 197.88Q333.21 197.88 332.01 196.74Q330.81 195.60 330.81 193.75Q330.81 192.53 331.36 191.62Q331.91 190.70 332.90 190.19Q333.88 189.67 335.15 189.67L339.23 189.67L339.23 188.64Q339.23 186.07 336.42 186.07Q335.18 186.07 334.41 186.53Q333.64 186.98 333.59 187.80L331.43 187.80Q331.55 186.24 332.88 185.22Q334.22 184.20 336.42 184.20Q338.82 184.20 340.11 185.35Q341.39 186.50 341.39 188.57L341.39 197.64L339.26 197.64L339.26 195.24L339.21 195.24Q339.02 196.46 337.98 197.17Q336.95 197.88 335.25 197.88M335.78 196.06Q337.36 196.06 338.30 195.29Q339.23 194.52 339.23 193.20L339.23 191.35L335.39 191.35Q334.34 191.35 333.68 191.99Q333.02 192.62 333.02 193.68Q333.02 194.78 333.75 195.42Q334.48 196.06 335.78 196.06" fill="white" fill-opacity="0.7"/>
<path d="M350.78 197.88Q348.50 197.88 347.13 196.52Q345.76 195.17 345.76 192.84L345.76 184.44L347.92 184.44L347.92 192.84Q347.92 194.28 348.69 195.13Q349.46 195.98 350.78 195.98Q352.12 195.98 352.90 195.13Q353.68 194.28 353.68 192.84L353.68 184.44L355.84 184.44L355.84 192.84Q355.84 195.17 354.45 196.52Q353.06 197.88 350.78 197.88" fill="white" fill-opacity="0.7"/>
<path d="M370.36 197.64L366.52 197.64Q364.89 197.64 363.90 196.69Q362.92 195.74 362.92 194.16L362.92 186.41L359.13 186.41L359.13 184.44L362.92 184.44L362.92 180.72L365.08 180.72L365.08 184.44L370.48 184.44L370.48 186.41L365.08 186.41L365.08 194.16Q365.08 194.83 365.48 195.25Q365.87 195.67 366.52 195.67L370.36 195.67" fill="white" fill-opacity="0.7"/>
<path d="M376.77 197.64L374.61 197.64L374.61 180.12L376.77 180.12L376.77 186.96L376.79 186.96Q376.96 185.64 377.87 184.92Q378.78 184.20 380.30 184.20Q382.29 184.20 383.46 185.42Q384.64 186.65 384.64 188.76L384.64 197.64L382.48 197.64L382.48 189.12Q382.48 187.63 381.72 186.83Q380.97 186.02 379.67 186.02Q378.33 186.02 377.55 186.86Q376.77 187.70 376.77 189.24" fill="white" fill-opacity="0.7"/>
<path d="M394 197.88Q391.67 197.88 390.24 196.48Q388.82 195.07 388.82 192.60L388.82 189.48Q388.82 187.01 390.24 185.60Q391.67 184.20 394 184.20Q395.56 184.20 396.72 184.82Q397.89 185.45 398.54 186.58Q399.18 187.70 399.18 189.24L399.18 191.59L390.93 191.59L390.93 192.84Q390.93 194.30 391.77 195.16Q392.61 196.01 394 196.01Q395.20 196.01 395.98 195.54Q396.76 195.07 396.93 194.28L399.09 194.28Q398.87 195.94 397.48 196.91Q396.09 197.88 394 197.88M390.93 189.24L390.93 189.91L397.07 189.91L397.07 189.24Q397.07 187.68 396.27 186.83Q395.46 185.98 394 185.98Q392.54 185.98 391.73 186.83Q390.93 187.68 390.93 189.24" fill="white" fill-opacity="0.7"/>
<path d="M405.57 197.64L403.41 197.64L403.41 184.44L405.57 184.44L405.57 186.96L405.59 186.96Q405.76 185.64 406.67 184.92Q407.58 184.20 409.10 184.20Q411.09 184.20 412.26 185.42Q413.44 186.65 413.44 188.76L413.44 197.64L411.28 197.64L411.28 189.14Q411.28 187.63 410.52 186.83Q409.77 186.02 408.47 186.02Q407.13 186.02 406.35 186.86Q405.57 187.70 405.57 189.24" fill="white" fill-opacity="0.7"/>
<path d="M427.96 197.64L424.12 197.64Q422.49 197.64 421.50 196.69Q420.52 195.74 420.52 194.16L420.52 186.41L416.73 186.41L416.73 184.44L420.52 184.44L420.52 180.72L422.68 180.72L422.68 184.44L428.08 184.44L428.08 186.41L422.68 186.41L422.68 194.16Q422.68 194.83 423.08 195.25Q423.47 195.67 424.12 195.67L427.96 195.67" fill="white" fill-opacity="0.7"/>
<path d="M443.32 197.64L432.04 197.64L432.04 195.67L436.72 195.67L436.72 186.41L432.52 186.41L432.52 184.44L438.88 184.44L438.88 195.67L443.32 195.67L443.32 197.64M437.56 182.06Q436.77 182.06 436.31 181.66Q435.86 181.25 435.86 180.55Q435.86 179.83 436.31 179.41Q436.77 178.99 437.56 178.99Q438.35 178.99 438.81 179.41Q439.26 179.83 439.26 180.55Q439.26 181.25 438.81 181.66Q438.35 182.06 437.56 182.06" fill="white" fill-opacity="0.7"/>
<path d="M451.79 197.88Q449.39 197.88 447.95 196.54Q446.51 195.19 446.51 192.84L446.51 189.24Q446.51 186.89 447.95 185.54Q449.39 184.20 451.79 184.20Q454.07 184.20 455.48 185.42Q456.88 186.65 456.95 188.76L454.79 188.76Q454.72 187.49 453.93 186.80Q453.14 186.12 451.79 186.12Q450.38 186.12 449.52 186.92Q448.67 187.73 448.67 189.22L448.67 192.84Q448.67 194.33 449.52 195.14Q450.38 195.96 451.79 195.96Q453.14 195.96 453.93 195.26Q454.72 194.57 454.79 193.32L456.95 193.32Q456.88 195.43 455.48 196.66Q454.07 197.88 451.79 197.88" fill="white" fill-opacity="0.7"/>
<path d="M464.85 197.88Q462.81 197.88 461.61 196.74Q460.41 195.60 460.41 193.75Q460.41 192.53 460.96 191.62Q461.51 190.70 462.50 190.19Q463.48 189.67 464.75 189.67L468.83 189.67L468.83 188.64Q468.83 186.07 466.02 186.07Q464.78 186.07 464.01 186.53Q463.24 186.98 463.19 187.80L461.03 187.80Q461.15 186.24 462.48 185.22Q463.82 184.20 466.02 184.20Q468.42 184.20 469.71 185.35Q470.99 186.50 470.99 188.57L470.99 197.64L468.86 197.64L468.86 195.24L468.81 195.24Q468.62 196.46 467.58 197.17Q466.55 197.88 464.85 197.88M465.38 196.06Q466.96 196.06 467.90 195.29Q468.83 194.52 468.83 193.20L468.83 191.35L464.99 191.35Q463.94 191.35 463.28 191.99Q462.62 192.62 462.62 193.68Q462.62 194.78 463.35 195.42Q464.08 196.06 465.38 196.06" fill="white" fill-opacity="0.7"/>
<path d="M485.56 197.64L481.72 197.64Q480.09 197.64 479.10 196.69Q478.12 195.74 478.12 194.16L478.12 186.41L474.33 186.41L474.33 184.44L478.12 184.44L478.12 180.72L480.28 180.72L480.28 184.44L485.68 184.44L485.68 186.41L480.28 186.41L480.28 194.16Q480.28 194.83 480.68 195.25Q481.07 195.67 481.72 195.67L485.56 195.67" fill="white" fill-opacity="0.7"/>
<path d="M500.92 197.64L489.64 197.64L489.64 195.67L494.32 195.67L494.32 186.41L490.12 186.41L490.12 184.44L496.48 184.44L496.48 195.67L500.92 195.67L500.92 197.64M495.16 182.06Q494.37 182.06 493.91 181.66Q493.46 181.25 493.46 180.55Q493.46 179.83 493.91 179.41Q494.37 178.99 495.16 178.99Q495.95 178.99 496.41 179.41Q496.86 179.83 496.86 180.55Q496.86 181.25 496.41 181.66Q495.95 182.06 495.16 182.06" fill="white" fill-opacity="0.7"/>
<path d="M509.20 197.83Q506.82 197.83 505.42 196.44Q504.02 195.05 504.02 192.55L504.02 189.53Q504.02 187.01 505.41 185.63Q506.80 184.25 509.20 184.25Q511.60 184.25 512.99 185.63Q514.38 187.01 514.38 189.53L514.38 192.55Q514.38 195.05 512.98 196.44Q511.58 197.83 509.20 197.83M509.20 195.91Q510.62 195.91 511.42 195.12Q512.22 194.33 512.22 192.79L512.22 189.29Q512.22 187.75 511.42 186.96Q510.62 186.17 509.20 186.17Q507.81 186.17 506.99 186.96Q506.18 187.75 506.18 189.29L506.18 192.79Q506.18 194.33 506.99 195.12Q507.81 195.91 509.20 195.91" fill="white" fill-opacity="0.7"/>
<path d="M520.77 197.64L518.61 197.64L518.61 184.44L520.77 184.44L520.77 186.96L520.79 186.96Q520.96 185.64 521.87 184.92Q522.78 184.20 524.30 184.20Q526.29 184.20 527.46 185.42Q528.64 186.65 528.64 188.76L528.64 197.64L526.48 197.64L526.48 189.14Q526.48 187.63 525.72 186.83Q524.97 186.02 523.67 186.02Q522.33 186.02 521.55 186.86Q520.77 187.70 520.77 189.24" fill="white" fill-opacity="0.7"/>
<path d="M538 197.88Q537.11 197.88 536.57 197.35Q536.03 196.82 536.03 195.98Q536.03 195.10 536.57 194.54Q537.11 193.99 538 193.99Q538.89 193.99 539.43 194.54Q539.97 195.10 539.97 195.98Q539.97 196.82 539.43 197.35Q538.89 197.88 538 197.88" fill="white" fill-opacity="0.7"/>
<path d="M566.80 197.88Q564.35 197.88 563.06 196.52Q561.76 195.17 561.76 192.84L561.76 180.12L563.92 180.12L563.92 192.84Q563.92 194.28 564.63 195.12Q565.34 195.96 566.80 195.96Q568.24 195.96 568.96 195.12Q569.68 194.28 569.68 192.84L569.68 180.12L571.84 180.12L571.84 192.84Q571.84 195.19 570.56 196.54Q569.27 197.88 566.80 197.88" fill="white" fill-opacity="0.7"/>
<path d="M581.73 197.83L580.67 197.83Q578.46 197.83 577.25 196.84Q576.04 195.84 576.04 194.02L578.20 194.02Q578.20 194.93 578.85 195.44Q579.50 195.96 580.67 195.96L581.73 195.96Q582.93 195.96 583.59 195.43Q584.25 194.90 584.25 193.94Q584.25 192.24 582.69 192.02L579.04 191.50Q577.70 191.30 576.95 190.38Q576.21 189.46 576.21 187.94Q576.21 186.22 577.40 185.23Q578.58 184.25 580.67 184.25L581.73 184.25Q583.65 184.25 584.86 185.20Q586.07 186.14 586.17 187.68L583.98 187.68Q583.94 186.98 583.32 186.53Q582.71 186.07 581.73 186.07L580.67 186.07Q579.57 186.07 578.94 186.58Q578.32 187.08 578.32 187.94Q578.32 189.34 579.59 189.53L583 190.01Q586.36 190.49 586.36 193.94Q586.36 195.79 585.15 196.81Q583.94 197.83 581.73 197.83" fill="white" fill-opacity="0.7"/>
<path d="M595.60 197.88Q593.27 197.88 591.84 196.48Q590.42 195.07 590.42 192.60L590.42 189.48Q590.42 187.01 591.84 185.60Q593.27 184.20 595.60 184.20Q597.16 184.20 598.32 184.82Q599.49 185.45 600.14 186.58Q600.78 187.70 600.78 189.24L600.78 191.59L592.53 191.59L592.53 192.84Q592.53 194.30 593.37 195.16Q594.21 196.01 595.60 196.01Q596.80 196.01 597.58 195.54Q598.36 195.07 598.53 194.28L600.69 194.28Q600.47 195.94 599.08 196.91Q597.69 197.88 595.60 197.88M592.53 189.24L592.53 189.91L598.67 189.91L598.67 189.24Q598.67 187.68 597.87 186.83Q597.06 185.98 595.60 185.98Q594.14 185.98 593.33 186.83Q592.53 187.68 592.53 189.24" fill="white" fill-opacity="0.7"/>
<path d="M621.57 197.64L619.41 197.64L619.41 180.12L621.57 180.12L621.57 187.66L624.16 187.66L628.05 180.12L630.40 180.12L626.06 188.57L630.64 197.64L628.17 197.64L624.09 189.55L621.57 189.55" fill="white" fill-opacity="0.7"/>
<path d="M638.78 197.88Q636.50 197.88 635.13 196.52Q633.76 195.17 633.76 192.84L633.76 184.44L635.92 184.44L635.92 192.84Q635.92 194.28 636.69 195.13Q637.46 195.98 638.78 195.98Q640.12 195.98 640.90 195.13Q641.68 194.28 641.68 192.84L641.68 184.44L643.84 184.44L643.84 192.84Q643.84 195.17 642.45 196.52Q641.06 197.88 638.78 197.88" fill="white" fill-opacity="0.7"/>
<path d="M649.46 197.64L647.44 197.64L647.44 184.44L649.31 184.44L649.31 186.19L649.36 186.19Q649.48 185.30 650.07 184.75Q650.66 184.20 651.57 184.20Q652.43 184.20 653.03 184.70Q653.63 185.21 653.90 186.07L653.92 186.07Q654.09 185.21 654.68 184.70Q655.26 184.20 656.18 184.20Q657.45 184.20 658.20 185.15Q658.96 186.10 658.96 187.61L658.96 197.64L656.94 197.64L656.94 187.58Q656.94 186.79 656.56 186.32Q656.18 185.86 655.50 185.86Q654.86 185.86 654.47 186.31Q654.09 186.77 654.09 187.56L654.09 197.64L652.31 197.64L652.31 187.58Q652.31 186.79 651.93 186.32Q651.54 185.86 650.90 185.86Q650.22 185.86 649.84 186.31Q649.46 186.77 649.46 187.56" fill="white" fill-opacity="0.7"/>
<path d="M664.77 201.96L662.61 201.96L662.61 184.44L664.77 184.44L664.77 186.96L664.79 186.96Q664.96 185.66 665.92 184.93Q666.88 184.20 668.37 184.20Q670.36 184.20 671.54 185.51Q672.71 186.82 672.71 189.10L672.71 192.96Q672.71 195.24 671.54 196.56Q670.36 197.88 668.37 197.88Q666.88 197.88 665.92 197.14Q664.96 196.39 664.79 195.12L664.72 195.12L664.77 198.12L664.77 201.96M667.65 196.01Q669.02 196.01 669.78 195.29Q670.55 194.57 670.55 192.96L670.55 189.12Q670.55 187.49 669.78 186.78Q669.02 186.07 667.65 186.07Q666.33 186.07 665.55 186.91Q664.77 187.75 664.77 189.24L664.77 192.84Q664.77 194.33 665.55 195.17Q666.33 196.01 667.65 196.01" fill="white" fill-opacity="0.7"/>
<path d="M682 197.88Q679.67 197.88 678.24 196.48Q676.82 195.07 676.82 192.60L676.82 189.48Q676.82 187.01 678.24 185.60Q679.67 184.20 682 184.20Q683.56 184.20 684.72 184.82Q685.89 185.45 686.54 186.58Q687.18 187.70 687.18 189.24L687.18 191.59L678.93 191.59L678.93 192.84Q678.93 194.30 679.77 195.16Q680.61 196.01 682 196.01Q683.20 196.01 683.98 195.54Q684.76 195.07 684.93 194.28L687.09 194.28Q686.87 195.94 685.48 196.91Q684.09 197.88 682 197.88M678.93 189.24L678.93 189.91L685.07 189.91L685.07 189.24Q685.07 187.68 684.27 186.83Q683.46 185.98 682 185.98Q680.54 185.98 679.73 186.83Q678.93 187.68 678.93 189.24" fill="white" fill-opacity="0.7"/>
<path d="M692.61 197.64L690.40 197.64L694.96 180.12L697.86 180.12L702.40 197.64L700.22 197.64L699.06 192.98L693.76 192.98L692.61 197.64M695.54 185.74L694.19 191.16L698.61 191.16L697.26 185.76Q696.88 184.22 696.66 183.19Q696.45 182.16 696.40 181.85Q696.35 182.16 696.14 183.19Q695.92 184.22 695.54 185.74" fill="white" fill-opacity="0.7"/>
<path d="M707.97 201.96L705.81 201.96L705.81 184.44L707.97 184.44L707.97 186.96L707.99 186.96Q708.16 185.66 709.12 184.93Q710.08 184.20 711.57 184.20Q713.56 184.20 714.74 185.51Q715.91 186.82 715.91 189.10L715.91 192.96Q715.91 195.24 714.74 196.56Q713.56 197.88 711.57 197.88Q710.08 197.88 709.12 197.14Q708.16 196.39 707.99 195.12L707.92 195.12L707.97 198.12L707.97 201.96M710.85 196.01Q712.22 196.01 712.98 195.29Q713.75 194.57 713.75 192.96L713.75 189.12Q713.75 187.49 712.98 186.78Q712.22 186.07 710.85 186.07Q709.53 186.07 708.75 186.91Q707.97 187.75 707.97 189.24L707.97 192.84Q707.97 194.33 708.75 195.17Q709.53 196.01 710.85 196.01" fill="white" fill-opacity="0.7"/>
<path d="M722.37 201.96L720.21 201.96L720.21 184.44L722.37 184.44L722.37 186.96L722.39 186.96Q722.56 185.66 723.52 184.93Q724.48 184.20 725.97 184.20Q727.96 184.20 729.14 185.51Q730.31 186.82 730.31 189.10L730.31 192.96Q730.31 195.24 729.14 196.56Q727.96 197.88 725.97 197.88Q724.48 197.88 723.52 197.14Q722.56 196.39 722.39 195.12L722.32 195.12L722.37 198.12L722.37 201.96M725.25 196.01Q726.62 196.01 727.38 195.29Q728.15 194.57 728.15 192.96L728.15 189.12Q728.15 187.49 727.38 186.78Q726.62 186.07 725.25 186.07Q723.93 186.07 723.15 186.91Q722.37 187.75 722.37 189.24L722.37 192.84Q722.37 194.33 723.15 195.17Q723.93 196.01 725.25 196.01" fill="white" fill-opacity="0.7"/>
<path d="M740.13 197.83L739.07 197.83Q736.86 197.83 735.65 196.84Q734.44 195.84 734.44 194.02L736.60 194.02Q736.60 194.93 737.25 195.44Q737.90 195.96 739.07 195.96L740.13 195.96Q741.33 195.96 741.99 195.43Q742.65 194.90 742.65 193.94Q742.65 192.24 741.09 192.02L737.44 191.50Q736.10 191.30 735.35 190.38Q734.61 189.46 734.61 187.94Q734.61 186.22 735.80 185.23Q736.98 184.25 739.07 184.25L740.13 184.25Q742.05 184.25 743.26 185.20Q744.47 186.14 744.57 187.68L742.38 187.68Q742.34 186.98 741.72 186.53Q741.11 186.07 740.13 186.07L739.07 186.07Q737.97 186.07 737.34 186.58Q736.72 187.08 736.72 187.94Q736.72 189.34 737.99 189.53L741.40 190.01Q744.76 190.49 744.76 193.94Q744.76 195.79 743.55 196.81Q742.34 197.83 740.13 197.83" fill="white" fill-opacity="0.7"/>
<path d="M768.59 197.88Q766.19 197.88 764.75 196.54Q763.31 195.19 763.31 192.84L763.31 189.24Q763.31 186.89 764.75 185.54Q766.19 184.20 768.59 184.20Q770.87 184.20 772.28 185.42Q773.68 186.65 773.75 188.76L771.59 188.76Q771.52 187.49 770.73 186.80Q769.94 186.12 768.59 186.12Q767.18 186.12 766.32 186.92Q765.47 187.73 765.47 189.22L765.47 192.84Q765.47 194.33 766.32 195.14Q767.18 195.96 768.59 195.96Q769.94 195.96 770.73 195.26Q771.52 194.57 771.59 193.32L773.75 193.32Q773.68 195.43 772.28 196.66Q770.87 197.88 768.59 197.88" fill="white" fill-opacity="0.7"/>
<path d="M780.45 197.64L778.29 197.64L778.29 184.44L780.45 184.44L780.45 186.96L780.50 186.96Q780.66 185.69 781.58 184.94Q782.49 184.20 784.02 184.20Q786.09 184.20 787.20 185.44Q788.32 186.67 788.32 188.95L788.32 190.08L786.16 190.08L786.16 188.95Q786.16 186.07 783.35 186.07Q781.94 186.07 781.19 186.89Q780.45 187.70 780.45 189.24" fill="white" fill-opacity="0.7"/>
<path d="M797.20 197.88Q794.87 197.88 793.44 196.48Q792.02 195.07 792.02 192.60L792.02 189.48Q792.02 187.01 793.44 185.60Q794.87 184.20 797.20 184.20Q798.76 184.20 799.92 184.82Q801.09 185.45 801.74 186.58Q802.38 187.70 802.38 189.24L802.38 191.59L794.13 191.59L794.13 192.84Q794.13 194.30 794.97 195.16Q795.81 196.01 797.20 196.01Q798.40 196.01 799.18 195.54Q799.96 195.07 800.13 194.28L802.29 194.28Q802.07 195.94 800.68 196.91Q799.29 197.88 797.20 197.88M794.13 189.24L794.13 189.91L800.27 189.91L800.27 189.24Q800.27 187.68 799.47 186.83Q798.66 185.98 797.20 185.98Q795.74 185.98 794.93 186.83Q794.13 187.68 794.13 189.24" fill="white" fill-opacity="0.7"/>
<path d="M810.83 197.88Q808.86 197.88 807.68 196.56Q806.49 195.24 806.49 192.98L806.49 189.12Q806.49 186.84 807.66 185.52Q808.84 184.20 810.83 184.20Q812.32 184.20 813.29 184.94Q814.26 185.69 814.46 186.96L814.48 186.96L814.43 183.96L814.43 180.12L816.59 180.12L816.59 197.64L814.43 197.64L814.43 195.12L814.41 195.12Q814.24 196.42 813.28 197.15Q812.32 197.88 810.83 197.88M811.55 196.01Q812.90 196.01 813.66 195.17Q814.43 194.33 814.43 192.84L814.43 189.24Q814.43 187.75 813.66 186.91Q812.90 186.07 811.55 186.07Q810.18 186.07 809.42 186.78Q808.65 187.49 808.65 189.12L808.65 192.96Q808.65 194.57 809.42 195.29Q810.18 196.01 811.55 196.01" fill="white" fill-opacity="0.7"/>
<path d="M826 197.88Q823.67 197.88 822.24 196.48Q820.82 195.07 820.82 192.60L820.82 189.48Q820.82 187.01 822.24 185.60Q823.67 184.20 826 184.20Q827.56 184.20 828.72 184.82Q829.89 185.45 830.54 186.58Q831.18 187.70 831.18 189.24L831.18 191.59L822.93 191.59L822.93 192.84Q822.93 194.30 823.77 195.16Q824.61 196.01 826 196.01Q827.20 196.01 827.98 195.54Q828.76 195.07 828.93 194.28L831.09 194.28Q830.87 195.94 829.48 196.91Q828.09 197.88 826 197.88M822.93 189.24L822.93 189.91L829.07 189.91L829.07 189.24Q829.07 187.68 828.27 186.83Q827.46 185.98 826 185.98Q824.54 185.98 823.73 186.83Q822.93 187.68 822.93 189.24" fill="white" fill-opacity="0.7"/>
<path d="M837.57 197.64L835.41 197.64L835.41 184.44L837.57 184.44L837.57 186.96L837.59 186.96Q837.76 185.64 838.67 184.92Q839.58 184.20 841.10 184.20Q843.09 184.20 844.26 185.42Q845.44 186.65 845.44 188.76L845.44 197.64L843.28 197.64L843.28 189.14Q843.28 187.63 842.52 186.83Q841.77 186.02 840.47 186.02Q839.13 186.02 838.35 186.86Q837.57 187.70 837.57 189.24" fill="white" fill-opacity="0.7"/>
<path d="M859.96 197.64L856.12 197.64Q854.49 197.64 853.50 196.69Q852.52 195.74 852.52 194.16L852.52 186.41L848.73 186.41L848.73 184.44L852.52 184.44L852.52 180.72L854.68 180.72L854.68 184.44L860.08 184.44L860.08 186.41L854.68 186.41L854.68 194.16Q854.68 194.83 855.08 195.25Q855.47 195.67 856.12 195.67L859.96 195.67" fill="white" fill-opacity="0.7"/>
<path d="M875.32 197.64L864.04 197.64L864.04 195.67L868.72 195.67L868.72 186.41L864.52 186.41L864.52 184.44L870.88 184.44L870.88 195.67L875.32 195.67L875.32 197.64M869.56 182.06Q868.77 182.06 868.31 181.66Q867.86 181.25 867.86 180.55Q867.86 179.83 868.31 179.41Q868.77 178.99 869.56 178.99Q870.35 178.99 870.81 179.41Q871.26 179.83 871.26 180.55Q871.26 181.25 870.81 181.66Q870.35 182.06 869.56 182.06" fill="white" fill-opacity="0.7"/>
<path d="M882.45 197.88Q880.41 197.88 879.21 196.74Q878.01 195.60 878.01 193.75Q878.01 192.53 878.56 191.62Q879.11 190.70 880.10 190.19Q881.08 189.67 882.35 189.67L886.43 189.67L886.43 188.64Q886.43 186.07 883.62 186.07Q882.38 186.07 881.61 186.53Q880.84 186.98 880.79 187.80L878.63 187.80Q878.75 186.24 880.08 185.22Q881.42 184.20 883.62 184.20Q886.02 184.20 887.31 185.35Q888.59 186.50 888.59 188.57L888.59 197.64L886.46 197.64L886.46 195.24L886.41 195.24Q886.22 196.46 885.18 197.17Q884.15 197.88 882.45 197.88M882.98 196.06Q884.56 196.06 885.50 195.29Q886.43 194.52 886.43 193.20L886.43 191.35L882.59 191.35Q881.54 191.35 880.88 191.99Q880.22 192.62 880.22 193.68Q880.22 194.78 880.95 195.42Q881.68 196.06 882.98 196.06" fill="white" fill-opacity="0.7"/>
<path d="M904 197.64L899.92 197.64Q898.17 197.64 897.12 196.62Q896.08 195.60 896.08 193.92L896.08 182.09L891.52 182.09L891.52 180.12L898.24 180.12L898.24 193.92Q898.24 194.74 898.70 195.20Q899.15 195.67 899.92 195.67L904 195.67" fill="white" fill-opacity="0.7"/>
<path d="M912.93 197.83L911.87 197.83Q909.66 197.83 908.45 196.84Q907.24 195.84 907.24 194.02L909.40 194.02Q909.40 194.93 910.05 195.44Q910.70 195.96 911.87 195.96L912.93 195.96Q914.13 195.96 914.79 195.43Q915.45 194.90 915.45 193.94Q915.45 192.24 913.89 192.02L910.24 191.50Q908.90 191.30 908.15 190.38Q907.41 189.46 907.41 187.94Q907.41 186.22 908.60 185.23Q909.78 184.25 911.87 184.25L912.93 184.25Q914.85 184.25 916.06 185.20Q917.27 186.14 917.37 187.68L915.18 187.68Q915.14 186.98 914.52 186.53Q913.91 186.07 912.93 186.07L911.87 186.07Q910.77 186.07 910.14 186.58Q909.52 187.08 909.52 187.94Q909.52 189.34 910.79 189.53L914.20 190.01Q917.56 190.49 917.56 193.94Q917.56 195.79 916.35 196.81Q915.14 197.83 912.93 197.83" fill="white" fill-opacity="0.7"/>
<path d="M926.80 197.88Q925.91 197.88 925.37 197.35Q924.83 196.82 924.83 195.98Q924.83 195.10 925.37 194.54Q925.91 193.99 926.80 193.99Q927.69 193.99 928.23 194.54Q928.77 195.10 928.77 195.98Q928.77 196.82 928.23 197.35Q927.69 197.88 926.80 197.88" fill="white" fill-opacity="0.7"/>
<path d="M952.77 197.64L950.63 197.64L950.63 180.12L956.03 180.12Q957.59 180.12 958.77 180.76Q959.94 181.39 960.59 182.52Q961.24 183.65 961.24 185.16Q961.24 186.94 960.33 188.21Q959.42 189.48 957.90 189.98L961.48 197.64L959.10 197.64L955.67 190.20L952.77 190.20L952.77 197.64M952.77 182.06L952.77 188.26L956.03 188.26Q957.38 188.26 958.19 187.40Q959.01 186.55 959.01 185.16Q959.01 183.74 958.19 182.90Q957.38 182.06 956.03 182.06" fill="white" fill-opacity="0.7"/>
<path d="M970 197.88Q967.67 197.88 966.24 196.48Q964.82 195.07 964.82 192.60L964.82 189.48Q964.82 187.01 966.24 185.60Q967.67 184.20 970 184.20Q971.56 184.20 972.72 184.82Q973.89 185.45 974.54 186.58Q975.18 187.70 975.18 189.24L975.18 191.59L966.93 191.59L966.93 192.84Q966.93 194.30 967.77 195.16Q968.61 196.01 970 196.01Q971.20 196.01 971.98 195.54Q972.76 195.07 972.93 194.28L975.09 194.28Q974.87 195.94 973.48 196.91Q972.09 197.88 970 197.88M966.93 189.24L966.93 189.91L973.07 189.91L973.07 189.24Q973.07 187.68 972.27 186.83Q971.46 185.98 970 185.98Q968.54 185.98 967.73 186.83Q966.93 187.68 966.93 189.24" fill="white" fill-opacity="0.7"/>
<path d="M989.39 201.96L987.23 201.96L987.23 198.12L987.28 195.12L987.21 195.12Q987.04 196.39 986.08 197.14Q985.12 197.88 983.63 197.88Q981.64 197.88 980.46 196.56Q979.29 195.24 979.29 192.96L979.29 189.10Q979.29 186.82 980.48 185.51Q981.66 184.20 983.63 184.20Q985.12 184.20 986.08 184.93Q987.04 185.66 987.21 186.96L987.23 186.96L987.23 184.44L989.39 184.44L989.39 201.96M984.35 196.01Q985.70 196.01 986.46 195.17Q987.23 194.33 987.23 192.84L987.23 189.24Q987.23 187.75 986.46 186.91Q985.70 186.07 984.35 186.07Q982.98 186.07 982.22 186.77Q981.45 187.46 981.45 189L981.45 193.08Q981.45 194.62 982.22 195.31Q982.98 196.01 984.35 196.01" fill="white" fill-opacity="0.7"/>
<path d="M998.78 197.88Q996.50 197.88 995.13 196.52Q993.76 195.17 993.76 192.84L993.76 184.44L995.92 184.44L995.92 192.84Q995.92 194.28 996.69 195.13Q997.46 195.98 998.78 195.98Q1000.12 195.98 1000.90 195.13Q1001.68 194.28 1001.68 192.84L1001.68 184.44L1003.84 184.44L1003.84 192.84Q1003.84 195.17 1002.45 196.52Q1001.06 197.88 998.78 197.88" fill="white" fill-opacity="0.7"/>
<path d="M1013.20 197.88Q1010.87 197.88 1009.44 196.48Q1008.02 195.07 1008.02 192.60L1008.02 189.48Q1008.02 187.01 1009.44 185.60Q1010.87 184.20 1013.20 184.20Q1014.76 184.20 1015.92 184.82Q1017.09 185.45 1017.74 186.58Q1018.38 187.70 1018.38 189.24L1018.38 191.59L1010.13 191.59L1010.13 192.84Q1010.13 194.30 1010.97 195.16Q1011.81 196.01 1013.20 196.01Q1014.40 196.01 1015.18 195.54Q1015.96 195.07 1016.13 194.28L1018.29 194.28Q1018.07 195.94 1016.68 196.91Q1015.29 197.88 1013.20 197.88M1010.13 189.24L1010.13 189.91L1016.27 189.91L1016.27 189.24Q1016.27 187.68 1015.47 186.83Q1014.66 185.98 1013.20 185.98Q1011.74 185.98 1010.93 186.83Q1010.13 187.68 1010.13 189.24" fill="white" fill-opacity="0.7"/>
<path d="M1028.13 197.83L1027.07 197.83Q1024.86 197.83 1023.65 196.84Q1022.44 195.84 1022.44 194.02L1024.60 194.02Q1024.60 194.93 1025.25 195.44Q1025.90 195.96 1027.07 195.96L1028.13 195.96Q1029.33 195.96 1029.99 195.43Q1030.65 194.90 1030.65 193.94Q1030.65 192.24 1029.09 192.02L1025.44 191.50Q1024.10 191.30 1023.35 190.38Q1022.61 189.46 1022.61 187.94Q1022.61 186.22 1023.80 185.23Q1024.98 184.25 1027.07 184.25L1028.13 184.25Q1030.05 184.25 1031.26 185.20Q1032.47 186.14 1032.57 187.68L1030.38 187.68Q1030.34 186.98 1029.72 186.53Q1029.11 186.07 1028.13 186.07L1027.07 186.07Q1025.97 186.07 1025.34 186.58Q1024.72 187.08 1024.72 187.94Q1024.72 189.34 1025.99 189.53L1029.40 190.01Q1032.76 190.49 1032.76 193.94Q1032.76 195.79 1031.55 196.81Q1030.34 197.83 1028.13 197.83" fill="white" fill-opacity="0.7"/>
<path d="M1047.16 197.64L1043.32 197.64Q1041.69 197.64 1040.70 196.69Q1039.72 195.74 1039.72 194.16L1039.72 186.41L1035.93 186.41L1035.93 184.44L1039.72 184.44L1039.72 180.72L1041.88 180.72L1041.88 184.44L1047.28 184.44L1047.28 186.41L1041.88 186.41L1041.88 194.16Q1041.88 194.83 1042.28 195.25Q1042.67 195.67 1043.32 195.67L1047.16 195.67" fill="white" fill-opacity="0.7"/>
<path d="M1069.65 197.88Q1067.61 197.88 1066.41 196.74Q1065.21 195.60 1065.21 193.75Q1065.21 192.53 1065.76 191.62Q1066.31 190.70 1067.30 190.19Q1068.28 189.67 1069.55 189.67L1073.63 189.67L1073.63 188.64Q1073.63 186.07 1070.82 186.07Q1069.58 186.07 1068.81 186.53Q1068.04 186.98 1067.99 187.80L1065.83 187.80Q1065.95 186.24 1067.28 185.22Q1068.62 184.20 1070.82 184.20Q1073.22 184.20 1074.51 185.35Q1075.79 186.50 1075.79 188.57L1075.79 197.64L1073.66 197.64L1073.66 195.24L1073.61 195.24Q1073.42 196.46 1072.38 197.17Q1071.35 197.88 1069.65 197.88M1070.18 196.06Q1071.76 196.06 1072.70 195.29Q1073.63 194.52 1073.63 193.20L1073.63 191.35L1069.79 191.35Q1068.74 191.35 1068.08 191.99Q1067.42 192.62 1067.42 193.68Q1067.42 194.78 1068.15 195.42Q1068.88 196.06 1070.18 196.06" fill="white" fill-opacity="0.7"/>
<path d="M1085.39 197.88Q1082.99 197.88 1081.55 196.54Q1080.11 195.19 1080.11 192.84L1080.11 189.24Q1080.11 186.89 1081.55 185.54Q1082.99 184.20 1085.39 184.20Q1087.67 184.20 1089.08 185.42Q1090.48 186.65 1090.55 188.76L1088.39 188.76Q1088.32 187.49 1087.53 186.80Q1086.74 186.12 1085.39 186.12Q1083.98 186.12 1083.12 186.92Q1082.27 187.73 1082.27 189.22L1082.27 192.84Q1082.27 194.33 1083.12 195.14Q1083.98 195.96 1085.39 195.96Q1086.74 195.96 1087.53 195.26Q1088.32 194.57 1088.39 193.32L1090.55 193.32Q1090.48 195.43 1089.08 196.66Q1087.67 197.88 1085.39 197.88" fill="white" fill-opacity="0.7"/>
<path d="M1099.79 197.88Q1097.39 197.88 1095.95 196.54Q1094.51 195.19 1094.51 192.84L1094.51 189.24Q1094.51 186.89 1095.95 185.54Q1097.39 184.20 1099.79 184.20Q1102.07 184.20 1103.48 185.42Q1104.88 186.65 1104.95 188.76L1102.79 188.76Q1102.72 187.49 1101.93 186.80Q1101.14 186.12 1099.79 186.12Q1098.38 186.12 1097.52 186.92Q1096.67 187.73 1096.67 189.22L1096.67 192.84Q1096.67 194.33 1097.52 195.14Q1098.38 195.96 1099.79 195.96Q1101.14 195.96 1101.93 195.26Q1102.72 194.57 1102.79 193.32L1104.95 193.32Q1104.88 195.43 1103.48 196.66Q1102.07 197.88 1099.79 197.88" fill="white" fill-opacity="0.7"/>
<path d="M1114 197.88Q1111.67 197.88 1110.24 196.48Q1108.82 195.07 1108.82 192.60L1108.82 189.48Q1108.82 187.01 1110.24 185.60Q1111.67 184.20 1114 184.20Q1115.56 184.20 1116.72 184.82Q1117.89 185.45 1118.54 186.58Q1119.18 187.70 1119.18 189.24L1119.18 191.59L1110.93 191.59L1110.93 192.84Q1110.93 194.30 1111.77 195.16Q1112.61 196.01 1114 196.01Q1115.20 196.01 1115.98 195.54Q1116.76 195.07 1116.93 194.28L1119.09 194.28Q1118.87 195.94 1117.48 196.91Q1116.09 197.88 1114 197.88M1110.93 189.24L1110.93 189.91L1117.07 189.91L1117.07 189.24Q1117.07 187.68 1116.27 186.83Q1115.46 185.98 1114 185.98Q1112.54 185.98 1111.73 186.83Q1110.93 187.68 1110.93 189.24" fill="white" fill-opacity="0.7"/>
<path d="M1128.93 197.83L1127.87 197.83Q1125.66 197.83 1124.45 196.84Q1123.24 195.84 1123.24 194.02L1125.40 194.02Q1125.40 194.93 1126.05 195.44Q1126.70 195.96 1127.87 195.96L1128.93 195.96Q1130.13 195.96 1130.79 195.43Q1131.45 194.90 1131.45 193.94Q1131.45 192.24 1129.89 192.02L1126.24 191.50Q1124.90 191.30 1124.15 190.38Q1123.41 189.46 1123.41 187.94Q1123.41 186.22 1124.60 185.23Q1125.78 184.25 1127.87 184.25L1128.93 184.25Q1130.85 184.25 1132.06 185.20Q1133.27 186.14 1133.37 187.68L1131.18 187.68Q1131.14 186.98 1130.52 186.53Q1129.91 186.07 1128.93 186.07L1127.87 186.07Q1126.77 186.07 1126.14 186.58Q1125.52 187.08 1125.52 187.94Q1125.52 189.34 1126.79 189.53L1130.20 190.01Q1133.56 190.49 1133.56 193.94Q1133.56 195.79 1132.35 196.81Q1131.14 197.83 1128.93 197.83" fill="white" fill-opacity="0.7"/>
<path d="M1143.33 197.83L1142.27 197.83Q1140.06 197.83 1138.85 196.84Q1137.64 195.84 1137.64 194.02L1139.80 194.02Q1139.80 194.93 1140.45 195.44Q1141.10 195.96 1142.27 195.96L1143.33 195.96Q1144.53 195.96 1145.19 195.43Q1145.85 194.90 1145.85 193.94Q1145.85 192.24 1144.29 192.02L1140.64 191.50Q1139.30 191.30 1138.55 190.38Q1137.81 189.46 1137.81 187.94Q1137.81 186.22 1139 185.23Q1140.18 184.25 1142.27 184.25L1143.33 184.25Q1145.25 184.25 1146.46 185.20Q1147.67 186.14 1147.77 187.68L1145.58 187.68Q1145.54 186.98 1144.92 186.53Q1144.31 186.07 1143.33 186.07L1142.27 186.07Q1141.17 186.07 1140.54 186.58Q1139.92 187.08 1139.92 187.94Q1139.92 189.34 1141.19 189.53L1144.60 190.01Q1147.96 190.49 1147.96 193.94Q1147.96 195.79 1146.75 196.81Q1145.54 197.83 1143.33 197.83" fill="white" fill-opacity="0.7"/>
<path d="M78.62 229.64L75.78 229.64L71.30 216.44L73.62 216.44L76.50 225.32Q76.77 226.11 76.96 226.84Q77.15 227.58 77.25 227.98Q77.37 227.58 77.54 226.84Q77.70 226.11 77.94 225.32L80.82 216.44L83.10 216.44" fill="white" fill-opacity="0.7"/>
<path d="M97.72 229.64L86.44 229.64L86.44 227.67L91.12 227.67L91.12 218.41L86.92 218.41L86.92 216.44L93.28 216.44L93.28 227.67L97.72 227.67L97.72 229.64M91.96 214.06Q91.17 214.06 90.71 213.66Q90.26 213.25 90.26 212.55Q90.26 211.83 90.71 211.41Q91.17 210.99 91.96 210.99Q92.75 210.99 93.21 211.41Q93.66 211.83 93.66 212.55Q93.66 213.25 93.21 213.66Q92.75 214.06 91.96 214.06" fill="white" fill-opacity="0.7"/>
<path d="M104.85 229.88Q102.81 229.88 101.61 228.74Q100.41 227.60 100.41 225.75Q100.41 224.53 100.96 223.62Q101.51 222.70 102.50 222.19Q103.48 221.67 104.75 221.67L108.83 221.67L108.83 220.64Q108.83 218.07 106.02 218.07Q104.78 218.07 104.01 218.53Q103.24 218.98 103.19 219.80L101.03 219.80Q101.15 218.24 102.48 217.22Q103.82 216.20 106.02 216.20Q108.42 216.20 109.71 217.35Q110.99 218.50 110.99 220.57L110.99 229.64L108.86 229.64L108.86 227.24L108.81 227.24Q108.62 228.46 107.58 229.17Q106.55 229.88 104.85 229.88M105.38 228.06Q106.96 228.06 107.90 227.29Q108.83 226.52 108.83 225.20L108.83 223.35L104.99 223.35Q103.94 223.35 103.28 223.99Q102.62 224.62 102.62 225.68Q102.62 226.78 103.35 227.42Q104.08 228.06 105.38 228.06" fill="white" fill-opacity="0.7"/>
<path d="M120.40 229.88Q119.51 229.88 118.97 229.35Q118.43 228.82 118.43 227.98Q118.43 227.10 118.97 226.54Q119.51 225.99 120.40 225.99Q121.29 225.99 121.83 226.54Q122.37 227.10 122.37 227.98Q122.37 228.82 121.83 229.35Q121.29 229.88 120.40 229.88" fill="white" fill-opacity="0.7"/>
<path d="M134.80 229.88Q133.91 229.88 133.37 229.35Q132.83 228.82 132.83 227.98Q132.83 227.10 133.37 226.54Q133.91 225.99 134.80 225.99Q135.69 225.99 136.23 226.54Q136.77 227.10 136.77 227.98Q136.77 228.82 136.23 229.35Q135.69 229.88 134.80 229.88" fill="white" fill-opacity="0.7"/>
<path d="M149.20 229.88Q148.31 229.88 147.77 229.35Q147.23 228.82 147.23 227.98Q147.23 227.10 147.77 226.54Q148.31 225.99 149.20 225.99Q150.09 225.99 150.63 226.54Q151.17 227.10 151.17 227.98Q151.17 228.82 150.63 229.35Q150.09 229.88 149.20 229.88" fill="white" fill-opacity="0.7"/>
<path d="M79.95 136.06L70.45 136.06L70.45 65.98L79.95 65.98L79.95 95.74L89.74 95.74L104.72 65.98L115.09 65.98L98.10 99.68L115.95 136.06L105.20 136.06L89.55 104.09L79.95 104.09L79.95 136.06M148.40 137.02Q138.51 137.02 133.18 131.55Q127.86 126.08 127.86 116.67L127.86 65.98L137.36 65.98L137.36 116.67Q137.36 122.24 140.10 125.40Q142.83 128.57 148.40 128.57Q153.87 128.57 156.70 125.40Q159.54 122.24 159.54 116.67L159.54 65.98L169.04 65.98L169.04 116.67Q169.04 126.17 163.71 131.60Q158.38 137.02 148.40 137.02M192.75 136.06L183.73 136.06L183.73 65.98L197.17 65.98L205.81 96.22L214.83 65.98L228.37 65.98L228.37 136.06L219.25 136.06L219.25 103.90Q219.25 98.81 219.44 92.62Q219.63 86.43 219.97 80.24Q220.30 74.04 220.69 69.05L209.74 104.96L201.68 104.96L191.12 69.92Q191.98 76.92 192.37 85.52Q192.75 94.11 192.75 103.90L192.75 136.06M252.75 136.06L243.25 136.06L243.25 65.98L266 65.98Q272.72 65.98 277.62 68.57Q282.51 71.16 285.20 75.82Q287.89 80.48 287.89 86.91Q287.89 93.24 285.20 97.90Q282.51 102.56 277.57 105.15Q272.62 107.74 266 107.74L252.75 107.74L252.75 136.06M252.75 74.43L252.75 99.29L266 99.29Q271.57 99.29 274.83 95.88Q278.10 92.48 278.10 86.91Q278.10 81.24 274.83 77.84Q271.57 74.43 266 74.43L252.75 74.43M342.51 136.06L301.71 136.06L301.71 65.98L342.51 65.98L342.51 74.52L311.12 74.52L311.12 95.36L339.15 95.36L339.15 103.61L311.12 103.61L311.12 127.52L342.51 127.52L342.51 136.06M364.11 136.06L354.42 136.06L372.56 65.98L385.14 65.98L403.18 136.06L393.49 136.06L389.07 117.82L368.53 117.82L364.11 136.06M375.54 88.92L370.45 109.95L387.15 109.95L382.16 89.02Q380.72 83.26 379.86 79.23Q378.99 75.20 378.80 73.76Q378.61 75.20 377.74 79.23Q376.88 83.26 375.54 88.92M425.55 136.06L416.05 136.06L416.05 65.98L438.80 65.98Q445.52 65.98 450.42 68.57Q455.31 71.16 458 75.82Q460.69 80.48 460.69 86.91Q460.69 93.24 458 97.90Q455.31 102.56 450.37 105.15Q445.42 107.74 438.80 107.74L425.55 107.74L425.55 136.06M425.55 74.43L425.55 99.29L438.80 99.29Q444.37 99.29 447.63 95.88Q450.90 92.48 450.90 86.91Q450.90 81.24 447.63 77.84Q444.37 74.43 438.80 74.43L425.55 74.43M483.15 136.06L473.65 136.06L473.65 65.98L496.40 65.98Q503.12 65.98 508.02 68.57Q512.91 71.16 515.60 75.82Q518.29 80.48 518.29 86.91Q518.29 93.24 515.60 97.90Q512.91 102.56 507.97 105.15Q503.02 107.74 496.40 107.74L483.15 107.74L483.15 136.06M483.15 74.43L483.15 99.29L496.40 99.29Q501.97 99.29 505.23 95.88Q508.50 92.48 508.50 86.91Q508.50 81.24 505.23 77.84Q501.97 74.43 496.40 74.43L483.15 74.43M551.98 137.02Q541.62 137.02 535.47 131.60Q529.33 126.17 529.33 116.67L538.83 116.67Q538.83 122.24 542.38 125.40Q545.94 128.57 551.98 128.57Q557.74 128.57 561.15 125.36Q564.56 122.14 564.56 116.76Q564.56 112.73 562.35 109.71Q560.14 106.68 556.11 105.63L545.74 102.84Q538.93 100.92 534.94 95.88Q530.96 90.84 530.96 83.93Q530.96 78.27 533.50 74Q536.05 69.72 540.66 67.37Q545.26 65.02 551.31 65.02Q557.46 65.02 562.11 67.37Q566.77 69.72 569.36 73.95Q571.95 78.17 571.95 83.74L562.54 83.74Q562.54 79.13 559.42 76.25Q556.30 73.37 551.31 73.37Q546.32 73.37 543.30 76.25Q540.27 79.13 540.27 83.74Q540.27 87.48 542.29 90.03Q544.30 92.57 547.95 93.63L558.61 96.51Q565.81 98.43 569.84 103.85Q573.87 109.28 573.87 116.76Q573.87 122.91 571.18 127.47Q568.50 132.03 563.55 134.52Q558.61 137.02 551.98 137.02" fill="url(#paint2_linear_0_1)"/>
<g id="Group 1">
<rect id="Rectangle 1" x="26" y="168" width="12" height="184" rx="5" fill="url(#paint3_linear_0_1)" fill-opacity="0.9"/>
</g>
<g id="Group 1_2">
<rect id="Rectangle 2" x="26" y="38" width="12" height="119" rx="5" fill="url(#paint4_linear_0_1)" fill-opacity="0.9"/>
</g>
<ellipse id="Ellipse 1" cx="148.5" cy="573" rx="215.5" ry="214" fill="url(#paint5_linear_0_1)" fill-opacity="0.4"/>
<rect id="Rectangle 3" x="1229" y="48" width="300" height="300" rx="25" fill="#FFFBFB" fill-opacity="0.9"/>
<g id="placeholder-logo"><g transform="translate(1229,48) translate(0.0,60.0) scale(1.2000)"><g fill="#666666">
  <path d="m88.05,27.65c-3.15,4 -3.2,51.2 -0.05,54.35c2.75,2.75 71.7,3.15 74.45,0.45c2.85,-2.9 2.3,-53.85 -0.65,-55.9c-1.95,-1.35 -7.15,-1.55 -36.95,-1.55l-34.7,0l-2.1,2.65zm69.45,3.35c0.65,0 1,8.6 1,23.75l0,23.75l-33,0l-33,0l-0.25,-23c-0.15,-12.6 -0.1,-23.45 0.15,-24.1c0.35,-0.85 8.9,-1.05 32.25,-0.75c17.55,0.2 32.3,0.35 32.85,0.35z"/>
  <path d="m99.15,37.3c-6.85,7.35 4.25,17.35 11.4,10.25c1.35,-1.35 2.45,-3.65 2.45,-5.05c0,-6.45 -9.35,-9.95 -13.85,-5.2z"/>
  <path d="m135,42.5c-0.7,0.85 -5.25,5.15 -10.1,9.6l-8.85,8.1l-3.2,-3.2l-3.15,-3.15l-6.35,6.3c-5.55,5.5 -6.35,6.75 -6.35,10.05l0,3.8l28.5,0l28.5,0l0,-8.6l0,-8.55l-8.15,-7.7c-9.35,-8.85 -9.15,-8.7 -10.85,-6.65zm7.25,15.2c0.95,0.9 1.75,2.9 1.75,4.45c6.35,-5.05 4.75,-7.15 4.9,-11.55c0.95,0 0,0 0,0l-6.65,7.1z"/>
  <path d="m53.65,110.75c0.1,4.8 0.45,8.65 0.75,8.5c0.35,-0.15 1.3,-0.25 2.1,-0.25c1.1,0 1.5,-1.2 1.5,-4.75l0,-4.75l3.25,5c4.9,7.5 6.2,6.75 6.55,-3.75c0.25,-8.15 0.15,-8.75 -1.7,-8.75c-1.65,0 -2.05,0.8 -2.3,4.75l-0.3,4.75l-2.8,-4.75c-4.85,-8.25 -7.25,-6.9 -7.05,4z"/>
  <path d="m91,108.9c0,9.65 0.3,10.1 6.1,10.1c5.8,0 7.15,-2.65 1.65,-3.2l-3.25,-0.3l-0.3,-6.75c-0.25,-5.95 -0.55,-6.75 -2.25,-6.75c-1.75,0 -1.95,0.7 -1.95,6.9z"/>
  <path d="m151,102.45c0,0.25 1,2.15 2.25,4.2c1.2,2.1 2.45,5.8 2.75,8.25c0.65,5.9 4,6.95 4,1.25c0.05,-2.1 1.25,-5.85 2.95,-8.9l2.9,-5.25l-2.5,0c-1.8,0 -2.8,0.85 -3.75,3.1l-1.3,3.05l-1.25,-3.05c-1.1,-2.6 -6.05,-4.8 -6.05,-2.65z"/>
  <path d="m191,107.45c0,9.05 3.4,8.85 4.25,-0.2c0.45,-5 0.35,-5.25 -1.9,-5.25c-2.2,0 -2.35,0.4 -2.35,5.45z"/>
  <path d="m180.8,104.75c-1.3,5.35 0.65,13.6 3.45,14.35c2.3,0.6 2.75,0.4 2.75,-1.2c0,-1.05 -0.45,-1.9 -1,-1.9c-0.55,0 -1,-1.6 -1,-3.5c0,-1.95 0.45,-3.5 1,-3.5c0.55,0 1,-0.7 1,-1.5c0,-0.85 -0.45,-1.5 -1,-1.5c-0.55,0 -1,-0.7 -1,-1.5c0,-2.1 -3.65,-1.9 -4.2,0.25z"/>
  <path d="m71.55,106.55c-2.2,2.25 -2.05,9.7 0.3,11.8c4.5,4.1 10.15,0.75 10.15,-6.1c0,-4.85 -2,-7.25 -6,-7.25c-1.55,0 -3.55,0.7 -4.45,1.55zm6.25,5.8c0.25,3.05 0,3.65 -1.6,3.65c-2.3,0 -3.25,-2.65 -2.05,-5.85c1.25,-3.35 3.3,-2.1 3.65,2.2z"/>
  <path d="m105.75,106.1c-2.5,1.45 -2.45,9.95 0.1,12.25c4.3,3.9 10.15,0.35 10.15,-6.2c0,-6 -5.15,-9.05 -10.25,-6.05zm6.05,6.25c0.25,3.05 0,3.65 -1.6,3.65c-2.3,0 -3.25,-2.65 -2.05,-5.85c1.25,-3.35 3.3,-2.1 3.65,2.2z"/>
  <path d="m119.2,106.2c-3.8,3.8 -0.4,12.55 4.4,11.35c1.9,-0.45 2.45,-0.3 2.15,0.65c-0.25,0.7 -1.55,1.2 -2.85,1.1c-4.05,-0.3 -5.35,0.45 -3.85,2.25c0.85,1.05 2.6,1.45 5.35,1.25l4.1,-0.3l0.3,-8.75l0.3,-8.75l-4.35,0c-2.4,0 -4.9,0.55 -5.55,1.2zm6.6,4.45c0.4,2.85 -2.15,4.85 -3.75,2.95c-0.9,-1.1 -0.9,-2 -0.05,-3.6c1.35,-2.5 3.4,-2.15 3.8,0.65z"/>
  <path d="m133.55,106.55c-2.2,2.25 -2.05,9.7 0.3,11.8c4.5,4.1 10.15,0.75 10.15,-6.1c0,-4.85 -2,-7.25 -6,-7.25c-1.55,0 -3.55,0.7 -4.45,1.55zm6.25,5.8c0.25,3.05 0,3.65 -1.6,3.65c-2.3,0 -3.25,-2.65 -2.05,-5.85c1.25,-3.35 3.3,-2.1 3.65,2.2z"/>
  <path d="m167.65,106.85c-3.9,4.3 -0.75,13.15 4.7,13.15c2.4,0 5.65,-2.75 5.65,-4.85c0,-1.4 -2.65,-1.55 -3.5,-0.15c-0.95,1.55 -4.5,1.15 -4.5,-0.5c0,-1.1 1.1,-1.5 4,-1.5c3.15,0 4,-0.35 4,-1.8c0,-5.3 -6.85,-8.25 -10.35,-4.35z"/>
  <path d="m191,117.5c0,2.15 0.4,2.6 2.25,2.3c1.5,-0.2 2.25,-1 2.25,-2.3c0,-1.3 -0.75,-2.1 -2.25,-2.3c-1.85,-0.3 -2.25,0.15 -2.25,2.3z"/>
 </g></g></g>
</g>
<defs>
<linearGradient id="paint0_linear_0_1" x1="0" y1="198" x2="1584" y2="198" gradientUnits="userSpaceOnUse">
<stop stop-color="#3D052C"/>
<stop offset="1"/>
</linearGradient>
<linearGradient id="paint1_linear_0_1" x1="323" y1="-224" x2="323" y2="352" gradientUnits="userSpaceOnUse">
<stop stop-color="#28F6F2" stop-opacity="0.4"/>
<stop offset="1" stop-color="#17908E" stop-opacity="0.7"/>
</linearGradient>
<linearGradient id="paint2_linear_0_1" x1="148.5" y1="38" x2="148.5" y2="140" gradientUnits="userSpaceOnUse">
<stop stop-color="white"/>
<stop offset="1" stop-color="#999999"/>
</linearGradient>
<linearGradient id="paint3_linear_0_1" x1="38" y1="260" x2="26" y2="260" gradientUnits="userSpaceOnUse">
<stop stop-color="#D9D9D9"/>
<stop offset="1" stop-color="#737373"/>
</linearGradient>
<linearGradient id="paint4_linear_0_1" x1="38" y1="97.5" x2="26" y2="97.5" gradientUnits="userSpaceOnUse">
<stop stop-color="#D9D9D9"/>
<stop offset="1" stop-color="#737373"/>
</linearGradient>
<linearGradient id="paint5_linear_0_1" x1="27.5" y1="434.5" x2="148.5" y2="787" gradientUnits="userSpaceOnUse">
<stop stop-color="#2E21BC"/>
<stop offset="1" stop-color="#150F56"/>
</linearGradient>
<clipPath id="clip0_0_1">
<rect width="1584" height="396" fill="white"/>
</clipPath>
</defs>
</svg>
